<svg id="visual" viewBox="0 0 960 540" width="960" height="540" xmlns="http://www.w3.org/2000/svg" xmlns:xlink="http://www.w3.org/1999/xlink" version="1.1"><rect x="0" y="0" width="960" height="540" fill="#001220"></rect><defs><linearGradient id="grad1_0" x1="43.8%" y1="0%" x2="100%" y2="100%"><stop offset="14.444444444444446%" stop-color="#001220" stop-opacity="1"></stop><stop offset="85.55555555555554%" stop-color="#001220" stop-opacity="1"></stop></linearGradient></defs><defs><linearGradient id="grad2_0" x1="0%" y1="0%" x2="56.3%" y2="100%"><stop offset="14.444444444444446%" stop-color="#001220" stop-opacity="1"></stop><stop offset="85.55555555555554%" stop-color="#001220" stop-opacity="1"></stop></linearGradient></defs><g transform="translate(960, 0)"><path d="M0 351C-52 350.3 -104.1 349.6 -132.4 319.7C-160.7 289.7 -165.4 230.4 -198.7 198.7C-232 167 -294.1 162.8 -324.3 134.3C-354.5 105.8 -352.7 52.9 -351 0L0 0Z" fill="#767dfe"></path></g><g transform="translate(0, 540)"><path d="M0 -351C44.4 -345.4 88.8 -339.7 134.3 -324.3C179.9 -308.9 226.6 -283.6 244.7 -244.7C262.7 -205.7 252.2 -152.9 265.2 -109.8C278.1 -66.8 314.6 -33.4 351 0L0 0Z" fill="#767dfe"></path></g></svg>