<svg id="visual" viewBox="0 0 960 540" width="960" height="540" xmlns="http://www.w3.org/2000/svg" xmlns:xlink="http://www.w3.org/1999/xlink" version="1.1"><rect x="0" y="0" width="960" height="540" fill="#001220"></rect><defs><linearGradient id="grad1_0" x1="43.8%" y1="0%" x2="100%" y2="100%"><stop offset="14.444444444444446%" stop-color="#907ad6" stop-opacity="1"></stop><stop offset="85.55555555555554%" stop-color="#907ad6" stop-opacity="1"></stop></linearGradient></defs><defs><linearGradient id="grad1_1" x1="43.8%" y1="0%" x2="100%" y2="100%"><stop offset="14.444444444444446%" stop-color="#907ad6" stop-opacity="1"></stop><stop offset="85.55555555555554%" stop-color="#5a62a9" stop-opacity="1"></stop></linearGradient></defs><defs><linearGradient id="grad1_2" x1="43.8%" y1="0%" x2="100%" y2="100%"><stop offset="14.444444444444446%" stop-color="#2f477a" stop-opacity="1"></stop><stop offset="85.55555555555554%" stop-color="#5a62a9" stop-opacity="1"></stop></linearGradient></defs><defs><linearGradient id="grad1_3" x1="43.8%" y1="0%" x2="100%" y2="100%"><stop offset="14.444444444444446%" stop-color="#2f477a" stop-opacity="1"></stop><stop offset="85.55555555555554%" stop-color="#102d4b" stop-opacity="1"></stop></linearGradient></defs><defs><linearGradient id="grad1_4" x1="43.8%" y1="0%" x2="100%" y2="100%"><stop offset="14.444444444444446%" stop-color="#001220" stop-opacity="1"></stop><stop offset="85.55555555555554%" stop-color="#102d4b" stop-opacity="1"></stop></linearGradient></defs><defs><linearGradient id="grad2_0" x1="0%" y1="0%" x2="56.3%" y2="100%"><stop offset="14.444444444444446%" stop-color="#907ad6" stop-opacity="1"></stop><stop offset="85.55555555555554%" stop-color="#907ad6" stop-opacity="1"></stop></linearGradient></defs><defs><linearGradient id="grad2_1" x1="0%" y1="0%" x2="56.3%" y2="100%"><stop offset="14.444444444444446%" stop-color="#5a62a9" stop-opacity="1"></stop><stop offset="85.55555555555554%" stop-color="#907ad6" stop-opacity="1"></stop></linearGradient></defs><defs><linearGradient id="grad2_2" x1="0%" y1="0%" x2="56.3%" y2="100%"><stop offset="14.444444444444446%" stop-color="#5a62a9" stop-opacity="1"></stop><stop offset="85.55555555555554%" stop-color="#2f477a" stop-opacity="1"></stop></linearGradient></defs><defs><linearGradient id="grad2_3" x1="0%" y1="0%" x2="56.3%" y2="100%"><stop offset="14.444444444444446%" stop-color="#102d4b" stop-opacity="1"></stop><stop offset="85.55555555555554%" stop-color="#2f477a" stop-opacity="1"></stop></linearGradient></defs><defs><linearGradient id="grad2_4" x1="0%" y1="0%" x2="56.3%" y2="100%"><stop offset="14.444444444444446%" stop-color="#102d4b" stop-opacity="1"></stop><stop offset="85.55555555555554%" stop-color="#001220" stop-opacity="1"></stop></linearGradient></defs><g transform="translate(960, 0)"><path d="M0 405C-31.5 406.8 -63 408.6 -90.1 394.8C-117.3 381.1 -140.1 351.8 -156.6 325.2C-173.2 298.7 -183.4 275.1 -212.6 266.6C-241.8 258.2 -289.9 264.9 -308.8 246.3C-327.7 227.6 -317.3 183.6 -314.4 151.4C-311.5 119.3 -316.1 99.1 -332.5 75.9C-348.8 52.6 -376.9 26.3 -405 0L0 0Z" fill="#072035"></path><path d="M0 324C-25.2 325.4 -50.4 326.9 -72.1 315.9C-93.8 304.9 -112.1 281.4 -125.3 260.2C-138.5 239 -146.7 220 -170.1 213.3C-193.4 206.5 -232 211.9 -247.1 197C-262.2 182.1 -253.9 146.8 -251.6 121.1C-249.2 95.4 -252.9 79.3 -266 60.7C-279 42.1 -301.5 21.1 -324 0L0 0Z" fill="#1e3a62"></path><path d="M0 243C-18.9 244.1 -37.8 245.2 -54.1 236.9C-70.4 228.7 -84.1 211.1 -94 195.1C-103.9 179.2 -110.1 165 -127.6 160C-145.1 154.9 -174 159 -185.3 147.8C-196.6 136.6 -190.4 110.1 -188.7 90.9C-186.9 71.6 -189.7 59.5 -199.5 45.5C-209.3 31.6 -226.1 15.8 -243 0L0 0Z" fill="#435591"></path><path d="M0 162C-12.6 162.7 -25.2 163.4 -36 157.9C-46.9 152.4 -56 140.7 -62.7 130.1C-69.3 119.5 -73.4 110 -85 106.6C-96.7 103.3 -116 106 -123.5 98.5C-131.1 91.1 -126.9 73.4 -125.8 60.6C-124.6 47.7 -126.4 39.7 -133 30.4C-139.5 21.1 -150.8 10.5 -162 0L0 0Z" fill="#746ec0"></path><path d="M0 81C-6.3 81.4 -12.6 81.7 -18 79C-23.5 76.2 -28 70.4 -31.3 65C-34.6 59.7 -36.7 55 -42.5 53.3C-48.4 51.6 -58 53 -61.8 49.3C-65.5 45.5 -63.5 36.7 -62.9 30.3C-62.3 23.9 -63.2 19.8 -66.5 15.2C-69.8 10.5 -75.4 5.3 -81 0L0 0Z" fill="#907ad6"></path></g><g transform="translate(0, 540)"><path d="M0 -405C24.9 -380.4 49.8 -355.8 80.8 -353.9C111.8 -352 148.9 -372.9 175.7 -364.9C202.5 -356.9 219 -319.9 230.1 -288.5C241.2 -257.1 246.9 -231.1 265.8 -212C284.7 -192.8 316.7 -180.5 330.7 -159.2C344.6 -138 340.6 -107.9 350 -79.9C359.4 -51.9 382.2 -25.9 405 0L0 0Z" fill="#072035"></path><path d="M0 -324C19.9 -304.3 39.8 -284.6 64.6 -283.1C89.4 -281.6 119.1 -298.3 140.6 -291.9C162 -285.5 175.2 -255.9 184.1 -230.8C192.9 -205.7 197.6 -184.9 212.7 -169.6C227.8 -154.3 253.3 -144.4 264.5 -127.4C275.7 -110.4 272.5 -86.3 280 -63.9C287.5 -41.5 305.8 -20.7 324 0L0 0Z" fill="#1e3a62"></path><path d="M0 -243C14.9 -228.2 29.9 -213.5 48.5 -212.3C67.1 -211.2 89.4 -223.8 105.4 -218.9C121.5 -214.1 131.4 -192 138 -173.1C144.7 -154.2 148.2 -138.7 159.5 -127.2C170.8 -115.7 190 -108.3 198.4 -95.5C206.8 -82.8 204.4 -64.7 210 -47.9C215.6 -31.1 229.3 -15.6 243 0L0 0Z" fill="#435591"></path><path d="M0 -162C10 -152.2 19.9 -142.3 32.3 -141.6C44.7 -140.8 59.6 -149.2 70.3 -146C81 -142.7 87.6 -128 92 -115.4C96.5 -102.8 98.8 -92.5 106.3 -84.8C113.9 -77.1 126.7 -72.2 132.3 -63.7C137.9 -55.2 136.2 -43.2 140 -32C143.8 -20.7 152.9 -10.4 162 0L0 0Z" fill="#746ec0"></path><path d="M0 -81C5 -76.1 10 -71.2 16.2 -70.8C22.4 -70.4 29.8 -74.6 35.1 -73C40.5 -71.4 43.8 -64 46 -57.7C48.2 -51.4 49.4 -46.2 53.2 -42.4C56.9 -38.6 63.3 -36.1 66.1 -31.8C68.9 -27.6 68.1 -21.6 70 -16C71.9 -10.4 76.4 -5.2 81 0L0 0Z" fill="#907ad6"></path></g></svg>