<svg xmlns="http://www.w3.org/2000/svg" version="1.1" xmlns:xlink="http://www.w3.org/1999/xlink" xmlns:svgjs="http://svgjs.dev/svgjs" width="100%" height="100%" viewBox="0 0 1000 600"><rect width="1000" height="600" x="0" y="0" fill="#000000"/><g><rect width="333.3333333333333" height="333.3333333333333" rx="13.333333333333334" ry="13.333333333333334" y="239.5515221742429" fill="#ffffff" transform="matrix(0.5751640888662218,0,0,0.5751640888662218,0,66.3578902383901)" x="217.32928466796875"/><path d="M328.31743954880335 475.49331166379466L328.31743954880335 391.64756455588224L308.8766759946217 391.64756455588224Q306.5708185587473 391.64756455588224 306.5708185587473 389.34170712000787L306.5708185587473 389.34170712000787L306.5708185587473 375.02948855251213Q306.5708185587473 372.7236311166379 308.8766759946217 372.7236311166379L308.8766759946217 372.7236311166379L328.31743954880335 372.7236311166379L328.31743954880335 337.26113399939845Q328.31743954880335 334.6769834247117 330.3450038458652 334.6769834247117L330.3450038458652 334.6769834247117L331.7762257026148 334.6769834247117Q340.08526370429985 334.6769834247117 344.7764909014234 339.68625992333523Q349.5074742612345 344.69553642195876 349.5074742612345 354.7140894192057L349.5074742612345 354.7140894192057L349.5074742612345 372.7236311166379L371.57214455279046 372.7236311166379Q373.55995268716487 372.7236311166379 373.55995268716487 375.02948855251213L373.55995268716487 375.02948855251213L373.55995268716487 389.34170712000787Q373.55995268716487 391.64756455588224 371.57214455279046 391.64756455588224L371.57214455279046 391.64756455588224L349.5074742612345 391.64756455588224L349.5074742612345 475.49331166379466Q349.5074742612345 478.0774622384814 347.2413729880477 478.0774622384814L347.2413729880477 478.0774622384814L330.3450038458652 478.0774622384814Q328.31743954880335 478.0774622384814 328.31743954880335 475.49331166379466L328.31743954880335 475.49331166379466ZM400.4748748265943 449.73131824230234L400.4748748265943 449.73131824230234Q407.0346416700299 449.73131824230234 411.48733189102853 454.3032769513635Q415.9400221120272 458.91499182311213 415.9400221120272 465.47475866654764L415.9400221120272 465.47475866654764Q415.9400221120272 471.79598853385824 411.48733189102853 476.48721573098186Q407.0346416700299 481.21819909079295 400.4748748265943 481.21819909079295L400.4748748265943 481.21819909079295Q394.15364495928367 481.21819909079295 389.58168625022256 476.48721573098186Q385.0097275411614 471.79598853385824 385.0097275411614 465.47475866654764L385.0097275411614 465.47475866654764Q385.0097275411614 458.91499182311213 389.58168625022256 454.3032769513635Q394.15364495928367 449.73131824230234 400.4748748265943 449.73131824230234ZM435.9771281065212 344.4172432831463L435.9771281065212 344.4172432831463Q435.9771281065212 338.692355856148 439.6744512364576 334.95527656352414Q443.41153052908146 331.21819727090025 448.85812481726737 331.21819727090025L448.85812481726737 331.21819727090025Q453.9866698039533 331.21819727090025 457.72374909657725 334.95527656352414Q461.4210722265136 338.692355856148 461.4210722265136 344.4172432831463L461.4210722265136 344.4172432831463Q461.4210722265136 349.8240814086447 457.72374909657725 353.5611607012686Q453.9866698039533 357.2982399938925 448.85812481726737 357.2982399938925L448.85812481726737 357.2982399938925Q443.41153052908146 357.2982399938925 439.6744512364576 353.5611607012686Q435.9771281065212 349.8240814086447 435.9771281065212 344.4172432831463ZM457.1274066562649 478.0774622384814L440.2707936767699 478.0774622384814Q437.9649362408956 478.0774622384814 437.9649362408956 475.49331166379466L437.9649362408956 475.49331166379466L437.9649362408956 375.3077816913246Q437.9649362408956 372.7236311166379 440.2707936767699 372.7236311166379L440.2707936767699 372.7236311166379L441.7020155335195 372.7236311166379Q449.97129737251703 372.7236311166379 454.70228073232806 377.6136391271989Q459.4332640921392 382.46389097507245 459.4332640921392 392.48244397231946L459.4332640921392 392.48244397231946L459.4332640921392 475.49331166379466Q459.4332640921392 478.0774622384814 457.1274066562649 478.0774622384814L457.1274066562649 478.0774622384814Z " fill="#00000" transform="matrix(0.5751640888662218,0,0,0.5751640888662218,0,66.3578902383901)"/><path d="M653.8868603930327 475.98183576502436L653.8868603930327 399.2909266741153L636.1050422112146 399.2909266741153Q633.9959513021237 399.2909266741153 633.9959513021237 397.1818357650244L633.9959513021237 397.1818357650244L633.9959513021237 384.0909266741153Q633.9959513021237 381.98183576502436 636.1050422112146 381.98183576502436L636.1050422112146 381.98183576502436L653.8868603930327 381.98183576502436L653.8868603930327 349.5454721286608Q653.8868603930327 347.1818357650244 655.7414058475782 347.1818357650244L655.7414058475782 347.1818357650244L657.0504967566692 347.1818357650244Q664.6504967566691 347.1818357650244 668.9414058475782 351.76365394684257Q673.268678574851 356.34547212866073 673.268678574851 365.5091084922971L673.268678574851 365.5091084922971L673.268678574851 381.98183576502436L693.4504967566692 381.98183576502436Q695.268678574851 381.98183576502436 695.268678574851 384.0909266741153L695.268678574851 384.0909266741153L695.268678574851 397.1818357650244Q695.268678574851 399.2909266741153 693.4504967566692 399.2909266741153L693.4504967566692 399.2909266741153L673.268678574851 399.2909266741153L673.268678574851 475.98183576502436Q673.268678574851 478.34547212866073 671.1959513021237 478.34547212866073L671.1959513021237 478.34547212866073L655.7414058475782 478.34547212866073Q653.8868603930327 478.34547212866073 653.8868603930327 475.98183576502436L653.8868603930327 475.98183576502436ZM787.15958766576 475.98183576502436L787.15958766576 464.7454721286607Q781.4141331203055 472.85456303775163 773.3050422112146 476.78183576502437Q765.15958766576 480.7091084922971 755.2323149384874 480.7091084922971L755.2323149384874 480.7091084922971Q740.8323149384873 480.7091084922971 730.7595876657601 473.9091084922971Q720.6504967566691 467.0727448559335 715.4141331203055 455.5818357650244Q710.1777694839418 444.0545630377517 710.1777694839418 430.16365394684254L710.1777694839418 430.16365394684254Q710.1777694839418 415.5091084922971 715.9595876657601 404.12729031047894Q721.7050422112146 392.74547212866077 732.068678574851 386.2000175832062Q742.3959513021236 379.65456303775164 755.9959513021238 379.65456303775164L755.9959513021238 379.65456303775164Q767.0141331203056 379.65456303775164 775.268678574851 383.83638121956983Q783.4868603930329 388.018199401388 788.2141331203054 394.81819940138803L788.2141331203054 394.81819940138803Q789.5232240293965 388.018199401388 793.450496756669 385.00001758320616Q797.3777694839418 381.98183576502436 803.4141331203055 381.98183576502436L803.4141331203055 381.98183576502436L804.7232240293965 381.98183576502436Q806.5414058475783 381.98183576502436 806.5414058475783 384.34547212866073L806.5414058475783 384.34547212866073L806.5414058475783 475.98183576502436Q806.5414058475783 478.34547212866073 804.7232240293965 478.34547212866073L804.7232240293965 478.34547212866073L789.268678574851 478.34547212866073Q787.15958766576 478.34547212866073 787.15958766576 475.98183576502436L787.15958766576 475.98183576502436ZM758.1050422112146 462.3818357650244L758.1050422112146 462.3818357650244Q764.6504967566691 462.3818357650244 771.3414058475782 459.618199401388Q777.9959513021238 456.8909266741153 782.5777694839419 449.8000175832062Q787.15958766576 442.7454721286607 787.15958766576 430.16365394684254L787.15958766576 430.16365394684254Q787.15958766576 417.32729031047893 782.5777694839419 410.418199401388Q777.9959513021238 403.47274485593346 771.450496756669 400.85456303775163Q764.9050422112145 398.2363812195698 758.9050422112145 398.2363812195698L758.9050422112145 398.2363812195698Q747.6323149384873 398.2363812195698 738.977769483942 406.0909266741153Q730.35958766576 413.94547212866075 730.35958766576 430.16365394684254L730.35958766576 430.16365394684254Q730.35958766576 441.94547212866075 734.6868603930327 449.0363812195698Q738.977769483942 456.0909266741153 745.4141331203055 459.218199401388Q751.8141331203055 462.3818357650244 758.1050422112146 462.3818357650244ZM853.15958766576 395.0727448559335L853.15958766576 395.0727448559335Q857.3414058475782 388.5272903104789 865.1959513021238 384.2363812195698Q873.0504967566692 379.9091084922971 883.5232240293965 379.9091084922971L883.5232240293965 379.9091084922971Q901.8504967566691 379.9091084922971 912.3232240293964 391.14547212866074Q922.7959513021237 402.418199401388 922.7959513021237 421.8000175832062L922.7959513021237 421.8000175832062L922.7959513021237 475.98183576502436Q922.7959513021237 478.34547212866073 920.6868603930327 478.34547212866073L920.6868603930327 478.34547212866073L905.2323149384874 478.34547212866073Q903.15958766576 478.34547212866073 903.15958766576 475.98183576502436L903.15958766576 475.98183576502436L903.15958766576 425.47274485593346Q903.15958766576 411.5818357650244 896.6141331203055 404.78183576502437Q890.068678574851 397.98183576502436 879.0504967566692 397.98183576502436L879.0504967566692 397.98183576502436Q867.268678574851 397.98183576502436 860.4686785748511 404.8909266741153Q853.6686785748509 411.83638121956983 853.6686785748509 426.4909266741153L853.6686785748509 426.4909266741153L853.6686785748509 475.98183576502436Q853.6686785748509 478.34547212866073 851.8504967566691 478.34547212866073L851.8504967566691 478.34547212866073L836.3959513021236 478.34547212866073Q834.2868603930328 478.34547212866073 834.2868603930328 475.98183576502436L834.2868603930328 475.98183576502436L834.2868603930328 384.34547212866073Q834.2868603930328 381.98183576502436 836.3959513021236 381.98183576502436L836.3959513021236 381.98183576502436L837.7050422112147 381.98183576502436Q843.7050422112147 381.98183576502436 847.9232240293964 385.4000175832062Q852.1050422112146 388.81819940138803 853.15958766576 395.0727448559335ZM991.9232240293964 480.96365394684256L991.9232240293964 480.96365394684256Q970.4323149384873 480.96365394684256 959.7050422112147 468.2727448559334Q948.9777694839418 455.5818357650244 948.9777694839418 433.32729031047893L948.9777694839418 433.32729031047893L948.9777694839418 384.34547212866073Q948.9777694839418 381.98183576502436 951.0504967566692 381.98183576502436L951.0504967566692 381.98183576502436L952.35958766576 381.98183576502436Q968.35958766576 381.98183576502436 968.35958766576 400.0545630377517L968.35958766576 400.0545630377517L968.35958766576 435.4000175832062Q968.35958766576 449.29092667411527 974.7595876657601 456.0909266741153Q981.15958766576 462.8909266741153 991.9232240293964 462.8909266741153L991.9232240293964 462.8909266741153Q1002.6504967566691 462.8909266741153 1009.0504967566692 456.7454721286607Q1015.4868603930329 450.6000175832062 1015.4868603930329 436.2000175832062L1015.4868603930329 436.2000175832062L1015.4868603930329 384.34547212866073Q1015.4868603930329 381.98183576502436 1017.5595876657601 381.98183576502436L1017.5595876657601 381.98183576502436L1018.868678574851 381.98183576502436Q1035.1232240293964 381.98183576502436 1035.1232240293964 400.0545630377517L1035.1232240293964 400.0545630377517L1035.1232240293964 434.63638121956984Q1035.1232240293964 456.0909266741153 1024.2504967566692 468.5272903104789Q1013.3777694839418 480.96365394684256 991.9232240293964 480.96365394684256ZM1075.7050422112147 398.2363812195698L1094.2868603930328 456.8909266741153L1117.3050422112146 384.8909266741153Q1118.35958766576 381.98183576502436 1121.5232240293965 381.98183576502436L1121.5232240293965 381.98183576502436L1135.9232240293964 381.98183576502436Q1137.7414058475783 381.98183576502436 1137.2323149384872 384.0909266741153L1137.2323149384872 384.0909266741153L1105.268678574851 476.2363812195698Q1104.5050422112147 478.34547212866073 1102.650496756669 478.34547212866073L1102.650496756669 478.34547212866073L1085.8868603930327 478.34547212866073Q1083.8141331203055 478.34547212866073 1082.7595876657601 476.2363812195698L1082.7595876657601 476.2363812195698L1050.8323149384873 384.0909266741153Q1050.0323149384874 381.98183576502436 1052.1414058475782 381.98183576502436L1052.1414058475782 381.98183576502436L1056.3232240293964 381.98183576502436Q1064.177769483942 381.98183576502436 1068.5050422112147 385.25456303775167Q1072.7959513021237 388.5272903104789 1075.7050422112147 398.2363812195698L1075.7050422112147 398.2363812195698ZM1158.1777694839418 452.418199401388L1158.1777694839418 452.418199401388Q1164.1777694839418 452.418199401388 1168.250496756669 456.6000175832062Q1172.2868603930328 460.81819940138803 1172.2868603930328 466.81819940138803L1172.2868603930328 466.81819940138803Q1172.2868603930328 472.6000175832062 1168.250496756669 476.8909266741153Q1164.1777694839418 481.218199401388 1158.1777694839418 481.218199401388L1158.1777694839418 481.218199401388Q1152.3959513021236 481.218199401388 1148.2141331203054 476.8909266741153Q1144.0323149384874 472.6000175832062 1144.0323149384874 466.81819940138803L1144.0323149384874 466.81819940138803Q1144.0323149384874 460.81819940138803 1148.2141331203054 456.6000175832062Q1152.3959513021236 452.418199401388 1158.1777694839418 452.418199401388ZM1190.6141331203055 356.0909266741153L1190.6141331203055 356.0909266741153Q1190.6141331203055 350.85456303775163 1194.0323149384874 347.43638121956985Q1197.450496756669 344.018199401388 1202.3959513021236 344.018199401388L1202.3959513021236 344.018199401388Q1207.1232240293964 344.018199401388 1210.5414058475783 347.43638121956985Q1213.9232240293964 350.85456303775163 1213.9232240293964 356.0909266741153L1213.9232240293964 356.0909266741153Q1213.9232240293964 361.0363812195699 1210.5414058475783 364.45456303775165Q1207.1232240293964 367.8727448559335 1202.3959513021236 367.8727448559335L1202.3959513021236 367.8727448559335Q1197.450496756669 367.8727448559335 1194.0323149384874 364.45456303775165Q1190.6141331203055 361.0363812195699 1190.6141331203055 356.0909266741153ZM1209.9959513021238 478.34547212866073L1194.5414058475783 478.34547212866073Q1192.4686785748509 478.34547212866073 1192.4686785748509 475.98183576502436L1192.4686785748509 475.98183576502436L1192.4686785748509 384.34547212866073Q1192.4686785748509 381.98183576502436 1194.5414058475783 381.98183576502436L1194.5414058475783 381.98183576502436L1195.8504967566691 381.98183576502436Q1203.4504967566693 381.98183576502436 1207.777769483942 386.45456303775165Q1212.1050422112146 390.8909266741153 1212.1050422112146 400.0545630377517L1212.1050422112146 400.0545630377517L1212.1050422112146 475.98183576502436Q1212.1050422112146 478.34547212866073 1209.9959513021238 478.34547212866073L1209.9959513021238 478.34547212866073ZM1258.177769483942 395.0727448559335L1258.177769483942 395.0727448559335Q1262.35958766576 388.5272903104789 1270.2141331203056 384.2363812195698Q1278.0686785748512 379.9091084922971 1288.5414058475783 379.9091084922971L1288.5414058475783 379.9091084922971Q1306.868678574851 379.9091084922971 1317.3414058475782 391.14547212866074Q1327.8141331203055 402.418199401388 1327.8141331203055 421.8000175832062L1327.8141331203055 421.8000175832062L1327.8141331203055 475.98183576502436Q1327.8141331203055 478.34547212866073 1325.7414058475783 478.34547212866073L1325.7414058475783 478.34547212866073L1310.2868603930328 478.34547212866073Q1308.177769483942 478.34547212866073 1308.177769483942 475.98183576502436L1308.177769483942 475.98183576502436L1308.177769483942 425.47274485593346Q1308.177769483942 411.5818357650244 1301.6323149384875 404.78183576502437Q1295.0868603930328 397.98183576502436 1284.1050422112148 397.98183576502436L1284.1050422112148 397.98183576502436Q1272.3232240293964 397.98183576502436 1265.5232240293963 404.8909266741153Q1258.686860393033 411.83638121956983 1258.686860393033 426.4909266741153L1258.686860393033 426.4909266741153L1258.686860393033 475.98183576502436Q1258.686860393033 478.34547212866073 1256.868678574851 478.34547212866073L1256.868678574851 478.34547212866073L1241.4141331203055 478.34547212866073Q1239.3414058475782 478.34547212866073 1239.3414058475782 475.98183576502436L1239.3414058475782 475.98183576502436L1239.3414058475782 384.34547212866073Q1239.3414058475782 381.98183576502436 1241.4141331203055 381.98183576502436L1241.4141331203055 381.98183576502436L1242.7232240293965 381.98183576502436Q1248.7595876657601 381.98183576502436 1252.9414058475784 385.4000175832062Q1257.1232240293964 388.81819940138803 1258.177769483942 395.0727448559335ZM1362.1050422112148 475.98183576502436L1362.1050422112148 399.2909266741153L1346.3959513021236 399.2909266741153Q1344.3232240293964 399.2909266741153 1344.3232240293964 397.1818357650244L1344.3232240293964 397.1818357650244L1344.3232240293964 384.34547212866073Q1344.3232240293964 381.98183576502436 1346.3959513021236 381.98183576502436L1346.3959513021236 381.98183576502436L1362.1050422112148 381.98183576502436L1362.1050422112148 362.63638121956984Q1362.1050422112148 346.3818357650244 1369.4504967566693 338.78183576502437Q1376.7959513021237 331.218199401388 1388.0323149384874 331.218199401388L1388.0323149384874 331.218199401388Q1396.1414058475782 331.218199401388 1401.268678574851 334.6000175832062Q1406.35958766576 338.018199401388 1408.868678574851 342.7091084922971Q1411.3414058475782 347.43638121956985 1411.3414058475782 351.36365394684253L1411.3414058475782 351.36365394684253Q1411.3414058475782 355.0363812195699 1408.977769483942 355.0363812195699L1408.977769483942 355.0363812195699Q1408.2141331203056 355.0363812195699 1406.6141331203055 354.2363812195698L1406.6141331203055 354.2363812195698Q1403.7414058475783 351.87274485593343 1400.4686785748509 350.2000175832062Q1397.1959513021238 348.49092667411526 1392.7595876657601 348.49092667411526L1392.7595876657601 348.49092667411526Q1387.5232240293965 348.49092667411526 1384.5050422112145 351.87274485593343Q1381.4868603930327 355.29092667411527 1381.4868603930327 363.65456303775164L1381.4868603930327 363.65456303775164L1381.4868603930327 381.98183576502436L1405.3050422112146 381.98183576502436Q1407.4141331203055 381.98183576502436 1407.4141331203055 384.34547212866073L1407.4141331203055 384.34547212866073L1407.4141331203055 397.1818357650244Q1407.4141331203055 399.2909266741153 1405.3050422112146 399.2909266741153L1405.3050422112146 399.2909266741153L1381.4868603930327 399.2909266741153L1381.4868603930327 475.98183576502436Q1381.4868603930327 478.34547212866073 1379.4141331203055 478.34547212866073L1379.4141331203055 478.34547212866073L1364.2141331203056 478.34547212866073Q1362.1050422112148 478.34547212866073 1362.1050422112148 475.98183576502436L1362.1050422112148 475.98183576502436ZM1472.6141331203055 480.7091084922971L1472.6141331203055 480.7091084922971Q1450.35958766576 480.7091084922971 1437.1232240293964 466.96365394684256Q1423.9232240293964 453.218199401388 1423.9232240293964 430.418199401388L1423.9232240293964 430.418199401388Q1423.9232240293964 407.65456303775164 1437.1232240293964 393.65456303775164Q1450.35958766576 379.65456303775164 1472.35958766576 379.65456303775164L1472.35958766576 379.65456303775164Q1494.6141331203055 379.65456303775164 1507.95958766576 393.65456303775164Q1521.3050422112146 407.65456303775164 1521.3050422112146 430.16365394684254L1521.3050422112146 430.16365394684254Q1521.3050422112146 452.96365394684256 1508.0686785748512 466.81819940138803Q1494.868678574851 480.7091084922971 1472.6141331203055 480.7091084922971ZM1472.35958766576 462.1272903104789L1472.35958766576 462.1272903104789Q1484.6504967566693 462.1272903104789 1492.9050422112145 454.27274485593347Q1501.1595876657602 446.418199401388 1501.1595876657602 430.418199401388L1501.1595876657602 430.418199401388Q1501.1595876657602 415.00001758320616 1492.9050422112145 406.6000175832062Q1484.6504967566693 398.2363812195698 1472.35958766576 398.2363812195698L1472.35958766576 398.2363812195698Q1459.777769483942 398.2363812195698 1451.9232240293964 406.6000175832062Q1444.068678574851 415.00001758320616 1444.068678574851 430.418199401388L1444.068678574851 430.418199401388Q1444.068678574851 445.87274485593343 1451.9232240293964 453.98183576502436Q1459.777769483942 462.1272903104789 1472.35958766576 462.1272903104789Z " fill="#ffffff" transform="matrix(0.5751640888662218,0,0,0.5751640888662218,0,66.3578902383901)"/></g></svg>